<svg xmlns="http://www.w3.org/2000/svg" id="a" width="250" height="100" viewBox="0 0 250 100"><path d="M17.92,61.93l2.72-.43v-25.08l-3.03-.39.16-2.72h18.97l-.47,7.6-3.78-.12-.24-4.76h-5.86v11.3h2.56l.59-2.6,2.64.08v7.8h-2.64l-.63-2.68h-2.56v11.97h5.9l.55-5.2,3.97.12.31,7.91h-19.28l.12-2.8ZM38.85,64.77l.12-2.32,2.12-.43v-15.83l-2.48-.24v-2.36l6.22-.91.47,1.34v.91c1.5-1.57,3.31-2.52,5.63-2.52,3.38,0,5.9,2.05,5.9,6.1v13.47l2.24.43-.12,2.32h-7.4v-15.04c0-2.17-.79-3.39-2.75-3.39-.67,0-1.14.12-1.65.31-.31.28-.63.67-.91,1.02v14.41l2.24.43-.16,2.32h-9.48v-.04ZM157.74,64.77l.08-2.32,2.12-.43v-15.83l-2.48-.24v-2.36l6.22-.91.47,1.34v.91c1.5-1.57,3.31-2.52,5.63-2.52,3.38,0,5.9,2.05,5.9,6.1v13.47l2.24.43-.12,2.32h-7.36v-15.04c0-2.17-.79-3.39-2.76-3.39-.67,0-1.14.12-1.65.31-.31.28-.63.67-.91,1.02v14.41l2.24.43-.16,2.32h-9.48v-.04ZM70.81,64.33c-.87.35-2.4.75-4.41.75-2.64,0-5.08-1.18-5.08-5.04v-13.86l-2.52-.39.12-2.76,2.83-.12,1.22-4.21,3.62-.16v4.53h3.9l-.28,2.76-3.58.39v13.86c0,1.14.63,1.89,1.81,1.89h2.12l.24,2.36ZM218.11,64.77l.08-2.28,2.01-.47v-15.83l-2.36-.24v-2.36l6.45-.91.43,1.54v.51c1.69-1.26,3.97-2.09,6.73-2.09l.94.83-.67,5.98-3.54-.12-.35-3.19c-.83.12-1.61.35-2.28.83v15.08l2.24.47-.16,2.28h-9.52v-.04ZM125.43,64.77l.12-2.28,2.01-.47v-15.83l-2.36-.24v-2.36l6.45-.91.43,1.54v.51c1.69-1.26,3.97-2.09,6.73-2.09l.94.83-.75,5.98-3.54-.12-.35-3.19c-.83.12-1.61.35-2.28.83v15.08l2.24.47-.16,2.28h-9.48v-.04ZM72.38,64.77l.12-2.28,2.01-.47v-15.83l-2.36-.24v-2.36l6.45-.91.43,1.54v.51c1.69-1.26,3.97-2.09,6.69-2.09l.94.83-.67,5.98-3.54-.12-.35-3.19c-.83.12-1.61.35-2.28.83v15.08l2.24.47-.16,2.28h-9.52v-.04ZM92.77,55.12c0,3.78,1.65,6.69,4.92,6.69,1.69,0,3.03-.35,4.6-1.1l.91,2.09c-1.61,1.3-3.97,2.28-6.93,2.28-5.75,0-9.05-4.96-9.05-11.34,0-5.43,2.4-11.38,8.97-11.38,5.75,0,7.91,5.32,7.91,11.22l-.55,1.42-10.78.12ZM92.69,52.6l6.61-.32c-.12-2.64-.67-6.81-3.27-6.81-.63,0-1.06.12-1.85.51-1.06,1.81-1.5,5.08-1.5,6.61ZM184.23,55.12c0,3.78,1.65,6.69,4.92,6.69,1.69,0,3.03-.35,4.6-1.1l.91,2.09c-1.61,1.3-3.97,2.28-6.93,2.28-5.75,0-9.05-4.96-9.05-11.34,0-5.43,2.4-11.38,8.97-11.38,5.75,0,7.91,5.32,7.91,11.22l-.55,1.42-10.78.12ZM184.15,52.6l6.61-.32c-.12-2.64-.67-6.81-3.27-6.81-.63,0-1.06.12-1.85.51-1.06,1.81-1.5,5.08-1.5,6.61ZM145.82,55.12c0,3.78,1.65,6.69,4.92,6.69,1.69,0,3.03-.35,4.6-1.1l.91,2.09c-1.61,1.3-3.97,2.28-6.93,2.28-5.75,0-9.05-4.96-9.05-11.34,0-5.43,2.4-11.38,8.97-11.38,5.75,0,7.91,5.32,7.91,11.22l-.55,1.42-10.78.12ZM145.74,52.6l6.61-.32c-.12-2.64-.67-6.81-3.27-6.81-.63,0-1.06.12-1.85.51-1.06,1.81-1.53,5.08-1.5,6.61ZM210.44,64.77l-.55-1.89c-1.46,1.38-2.87,2.2-5.08,2.2-3.38,0-6.41-1.69-6.41-6.38v-13.07l-2.48-.24v-2.09l7.16-.83.55,1.89v13.7c0,2.4.98,3.66,2.91,3.66.55,0,1.26-.08,1.89-.31.37-.37.7-.78.98-1.22v-14.57l-2.56-.24v-2.09l7.24-.83.55,1.89v17.64l2.24.43-.28,2.32h-6.18ZM114.85,61.93c-1.14,0-2.05-.2-2.75-.59v-13.9c.31-.47.67-.91,1.02-1.3.67-.24,1.26-.31,1.97-.31,2.95,0,3.46,2.99,3.46,8.35s-.79,6.58-.98,7.17c-.83.39-1.69.59-2.72.59h0ZM123.66,53.23c0-6.65-1.97-10.83-6.89-10.83-3.27,0-4.8,1.89-5.43,2.68v-.75l-.55-1.89-6.41.91v2.28l2.48.31v26.85l-2.13.43-.12,2.24h9.48l.16-2.24-2.24-.43v-8.5c.91.51,2.16.83,3.54.83,8.03,0,8.11-8.15,8.11-11.89h0Z" fill="#fff"></path></svg>