<svg xmlns="http://www.w3.org/2000/svg" id="Layer_1" width="92.7" height="21.75" viewBox="0 0 92.7 21.75"><path d="M73.61,0C67.21,0,63.87,2.71,63.87,6.86c0,1.32.82,3.22,2.2,4.12,2.42,1.57,4.45,1.8,7.23,2.48,1.6.39,3.33.84,3.33,1.86,0,.85-.86,1.48-3.13,1.48-4.49,0-5.38-2.37-5.38-2.37l-5.75,2.11c1.22,3.87,7.18,5.2,11.13,5.2,4.22,0,6.66-.9,8.21-2.38,1.71-1.63,1.88-3.21,1.88-4.71,0-1.32-.52-3.08-3.06-4.56-1.85-1.07-5.6-1.72-7.23-2.07-.61-.14-2.59-.42-2.59-1.59,0-.87,1.23-1.34,2.89-1.34,3.27,0,3.8,2.22,3.8,2.22l5.78-2.12c-.9-4.05-5.65-5.19-9.58-5.19h0ZM92.7.1l-6.93,2.54v18.28h6.93V.1ZM0,.48v20.44h6.93v-3.81c2.65-.86,5.26-1.85,7.82-2.96,4.84-2.2,5.05-4.97,5.05-7.26,0-2.85-2.12-6.41-8.03-6.41H0ZM21.78.48v20.44h18.02v-5.03h-11.09v-2.71h8.71v-5.03h-8.71v-2.65h10.89V.48h-17.82ZM42.8.48v20.44h6.93v-3.81c2.65-.86,5.26-1.85,7.82-2.96,4.84-2.2,5.05-4.97,5.05-7.26,0-2.85-2.12-6.41-8.03-6.41h-11.77ZM6.93,5.51h3.47c1.17,0,2.14.95,2.14,2.15,0,1.43-.55,2.19-2.63,3.06l-2.97,1.18v-6.39ZM49.73,5.51h3.47c1.17,0,2.14.95,2.14,2.15,0,1.43-.55,2.19-2.63,3.06l-2.97,1.18v-6.39Z" fill="#fff"></path></svg>