<svg xmlns="http://www.w3.org/2000/svg" xmlns:xlink="http://www.w3.org/1999/xlink" id="a" width="250" height="100" viewBox="0 0 250 100"><defs><clipPath id="b"><rect x="15.02" y="38.65" width="219.97" height="22.7" fill="none"></rect></clipPath></defs><g clip-path="url(#b)"><path d="M32.54,46.29c0,3.46-1.37,5.7-4.12,6.71l5.47,7.73h-5.95l-4.79-6.9h-3.33v6.9h-4.82v-21.61h8.19c3.36,0,5.76.57,7.19,1.71,1.43,1.14,2.15,2.96,2.14,5.47ZM26.73,48.87c.32-.34.57-.74.72-1.18.15-.44.21-.91.17-1.37.05-.44,0-.9-.16-1.31-.16-.42-.42-.79-.76-1.08-1-.52-2.12-.75-3.24-.65h-3.62v6.35h3.52c1.65,0,2.77-.23,3.37-.76Z" fill="#fff"></path><path d="M50.19,58.32c-1.76,1.72-4.14,2.68-6.6,2.65-2.31.08-4.56-.76-6.26-2.33-.83-.81-1.48-1.79-1.91-2.86-.43-1.08-.62-2.24-.56-3.39-.05-1.16.14-2.32.58-3.4.43-1.08,1.1-2.05,1.94-2.85,1.61-1.52,3.75-2.35,5.96-2.32,2.14-.06,4.22.68,5.84,2.08.8.71,1.43,1.58,1.85,2.57.42.98.6,2.05.55,3.12v2.48h-12.13c.07.45.23.87.46,1.25.24.38.55.71.92.97.79.58,1.74.88,2.72.87.75.02,1.49-.11,2.18-.39s1.32-.71,1.83-1.25l2.62,2.82ZM45.74,48.47c-.66-.54-1.48-.82-2.33-.8-.91,0-1.79.29-2.52.83-.37.26-.68.6-.91.99-.23.39-.37.83-.42,1.28h7.34c-.03-.44-.14-.88-.34-1.28-.2-.4-.47-.75-.81-1.04v.02Z" fill="#fff"></path><path d="M67.41,55.55c.03.75-.12,1.5-.44,2.19-.31.68-.78,1.29-1.37,1.76-1.3,1.03-2.93,1.56-4.58,1.5-1.32-.01-2.62-.24-3.86-.66-1.31-.43-2.54-1.1-3.61-1.96l2.04-2.91c1.56,1.28,3.51,1.99,5.53,2.01.5.03,1-.1,1.42-.36.16-.1.29-.24.39-.4.09-.16.14-.35.14-.54-.02-.23-.11-.45-.24-.64-.13-.19-.31-.34-.52-.44-.64-.4-1.34-.71-2.07-.92-.92-.29-1.62-.54-2.11-.76-.57-.26-1.13-.55-1.65-.89-.6-.35-1.09-.87-1.42-1.48-.33-.61-.49-1.3-.46-2-.02-.73.14-1.46.46-2.12.32-.66.8-1.23,1.39-1.67,1.38-1.02,3.07-1.53,4.79-1.46,2.12.06,4.17.78,5.87,2.04l-1.73,3.03c-1.25-.93-2.75-1.46-4.31-1.52-1.43,0-2.15.39-2.15,1.17,0,.22.07.43.19.61.12.18.29.32.49.41.73.36,1.49.65,2.27.87,1.05.33,1.8.58,2.27.76.55.24,1.08.51,1.59.83.58.38,1.04.92,1.34,1.54.3.63.42,1.32.34,2.01Z" fill="#fff"></path><path d="M76.38,47.43v7.45c-.03.55.14,1.09.49,1.52.15.17.33.3.53.4.2.09.42.14.65.14.43,0,.86-.11,1.24-.32.38-.2.71-.5.95-.86l1.73,3.24c-1.21,1.22-2.83,1.93-4.55,1.98-.77.03-1.54-.11-2.25-.4-.72-.29-1.36-.72-1.9-1.28s-.95-1.21-1.22-1.94c-.27-.72-.38-1.49-.33-2.26v-7.68h-1.96v-3.34h1.95v-4.98h4.67v4.98h4.02v3.34h-4.02Z" fill="#fff"></path><path d="M98.58,60.73h-4.36v-2.01c-.51.7-1.17,1.28-1.95,1.67-.77.4-1.63.6-2.49.6-1.61.06-3.19-.48-4.43-1.52-.59-.5-1.06-1.13-1.37-1.83-.31-.71-.46-1.47-.43-2.25-.04-.74.11-1.47.44-2.14.33-.66.81-1.23,1.42-1.65,1.53-.92,3.29-1.36,5.07-1.27h3.46v-.09c0-1.77-.94-2.66-2.81-2.66-.87.01-1.74.17-2.55.48-.81.28-1.58.68-2.27,1.19l-2.07-3.03c2.17-1.58,4.79-2.42,7.48-2.38,1.77-.08,3.52.46,4.95,1.52,1.27,1.02,1.92,2.61,1.92,4.8v10.56ZM93.88,54.39v-.81h-2.91c-1.85,0-2.78.58-2.78,1.74-.01.27.04.53.16.77.12.24.29.45.51.6.57.36,1.23.53,1.9.49.79,0,1.56-.26,2.17-.76.31-.24.55-.55.72-.9s.24-.74.23-1.12h0Z" fill="#fff"></path><path d="M113.53,53.06v-8.97h4.67v16.67h-4.67v-2.2c-.48.75-1.15,1.37-1.93,1.8-.79.42-1.67.64-2.56.63-1.7.05-3.34-.56-4.59-1.71-1.24-1.15-1.86-2.84-1.86-5.09v-10.1h4.67v9.09c0,2.56.94,3.83,2.81,3.83.45,0,.89-.08,1.31-.25.41-.17.79-.43,1.1-.75.37-.39.66-.86.84-1.37.18-.51.26-1.05.22-1.59Z" fill="#fff"></path><path d="M131.34,48.18c-.6-.04-1.2.07-1.74.33-.54.26-1.01.65-1.36,1.13-.73,1.16-1.09,2.51-1.02,3.88v7.21h-4.64v-16.67h4.64v2.2c.65-.71,1.42-1.3,2.27-1.74.84-.46,1.78-.72,2.74-.76v4.37l-.89.05Z" fill="#fff"></path><path d="M149.27,60.73h-4.36v-2.01c-.5.7-1.17,1.28-1.94,1.67-.77.4-1.63.6-2.49.6-1.61.06-3.19-.48-4.43-1.52-.59-.5-1.06-1.12-1.37-1.83-.31-.71-.46-1.47-.43-2.25-.04-.74.11-1.47.44-2.14.32-.66.81-1.23,1.42-1.65,1.53-.92,3.29-1.36,5.07-1.27h3.49v-.09c0-1.77-.94-2.66-2.82-2.66-.87.01-1.73.17-2.55.48-.81.28-1.58.68-2.27,1.19l-2.07-3.03c2.17-1.58,4.79-2.42,7.48-2.38,1.77-.08,3.52.46,4.95,1.52,1.27,1.02,1.91,2.61,1.91,4.8l-.02,10.56ZM144.61,54.39v-.81h-2.91c-1.86,0-2.78.58-2.78,1.74-.01.27.04.53.16.77.12.24.29.45.51.6.57.36,1.23.53,1.9.49.79,0,1.56-.26,2.17-.76.31-.24.55-.55.72-.9.16-.35.24-.74.23-1.12h0Z" fill="#fff"></path><path d="M158.14,51.45v9.28h-4.64v-16.67h4.64v1.86c.6-.66,1.33-1.19,2.14-1.56.81-.37,1.7-.56,2.59-.58.82-.02,1.64.14,2.4.46.76.32,1.44.8,2.01,1.4.61.67,1.07,1.45,1.38,2.3.3.85.44,1.75.39,2.65v10.11h-4.64v-9.4c0-2.56-.93-3.83-2.81-3.83-.45,0-.9.08-1.31.26-.42.17-.8.43-1.11.75-.37.4-.65.87-.83,1.39-.18.52-.25,1.06-.21,1.61h0Z" fill="#fff"></path><path d="M178.54,47.43v7.45c-.03.55.14,1.09.5,1.52.14.17.32.31.53.4.2.09.42.14.65.14.43,0,.86-.11,1.24-.32.38-.2.71-.5.95-.86l1.74,3.24c-1.21,1.22-2.83,1.92-4.55,1.98-.77.02-1.54-.11-2.25-.4-.71-.29-1.36-.72-1.9-1.28-.54-.55-.95-1.21-1.22-1.93-.27-.72-.38-1.49-.34-2.26v-7.68h-1.95v-3.34h1.94v-4.98h4.67v4.98h4v3.34h-4.01Z" fill="#fff"></path><path d="M197.4,49.39l.13-.08c.55-.31,1.04-.71,1.45-1.18.4-.47.71-1.01.92-1.6.21-.61.31-1.26.31-1.91.01-.83-.16-1.65-.51-2.41-.34-.72-.82-1.36-1.42-1.88-.62-.54-1.34-.94-2.12-1.2-1.56-.5-3.23-.55-4.81-.14-.67.17-1.32.42-1.92.76-.56.34-1.07.75-1.52,1.24-.45.47-.81,1.02-1.07,1.61l-.17.38,1.89,1.55.3-.66c.36-.82.98-1.51,1.75-1.97.69-.38,1.44-.63,2.22-.71.78-.08,1.57,0,2.32.22.48.15.92.39,1.3.71.36.31.65.69.85,1.11.21.48.31.99.3,1.52.02.47-.07.94-.25,1.37-.19.43-.47.82-.84,1.12-.97.7-2.15,1.04-3.34.95h-1.32v2.4h1.26c1.31-.08,2.61.32,3.64,1.14.42.38.74.85.95,1.38.21.52.31,1.09.28,1.65.03.55-.06,1.11-.26,1.63-.21.52-.52.98-.93,1.36-.94.77-2.14,1.15-3.36,1.08-1.08.04-2.14-.23-3.08-.76-.79-.46-1.4-1.17-1.75-2.01l-.28-.67-2,1.62.18.39c.57,1.22,1.51,2.23,2.7,2.87,1.29.7,2.74,1.05,4.21,1.02.98,0,1.96-.15,2.89-.46.84-.29,1.61-.73,2.27-1.31.65-.57,1.16-1.26,1.52-2.05.37-.84.56-1.74.55-2.66.04-1.45-.44-2.87-1.35-4.01-.52-.61-1.16-1.1-1.89-1.43h0Z" fill="#fff"></path><path d="M216.35,48.11c-.71-.71-1.54-1.27-2.46-1.67-1.68-.71-3.56-.81-5.31-.27-.69.22-1.35.54-1.95.95-.53.37-1.01.8-1.43,1.3.07-.64.18-1.28.33-1.91.24-1.07.65-2.09,1.2-3.03.43-.73,1.04-1.34,1.77-1.78.69-.4,1.48-.61,2.27-.6,1.03,0,2.03.3,2.88.89.84.57,1.48,1.38,1.82,2.33l.26.7,1.97-1.52-.17-.39c-.54-1.33-1.47-2.46-2.66-3.25-1.22-.8-2.64-1.22-4.1-1.2-1.18-.01-2.34.28-3.38.84-1.08.62-1.99,1.51-2.63,2.58-.78,1.3-1.33,2.73-1.64,4.21-.42,1.94-.61,3.93-.58,5.91-.02,1.29.19,2.57.6,3.79.36,1.06.93,2.05,1.68,2.89.72.79,1.59,1.42,2.58,1.83,1.48.63,3.11.81,4.69.52,1.58-.29,3.04-1.04,4.2-2.15.74-.72,1.33-1.57,1.72-2.52.4-.95.6-1.97.59-3,0-1.04-.2-2.07-.61-3.03-.39-.9-.94-1.73-1.63-2.43h0ZM208.6,48.64c.66-.28,1.37-.43,2.09-.43s1.43.15,2.09.43c.64.28,1.23.67,1.73,1.17.49.5.89,1.08,1.17,1.71.28.66.42,1.36.42,2.07s-.14,1.42-.42,2.07c-.28.64-.68,1.22-1.17,1.71-.76.75-1.73,1.27-2.78,1.47-1.05.21-2.14.09-3.13-.32-.65-.27-1.23-.66-1.72-1.15-.49-.49-.89-1.07-1.17-1.71-.29-.65-.44-1.36-.43-2.08,0-.71.14-1.42.43-2.07.56-1.29,1.59-2.32,2.89-2.88h0Z" fill="#fff"></path><path d="M234.4,50.91c-.37-.86-.92-1.63-1.6-2.27-.68-.66-1.48-1.17-2.36-1.52-1.86-.72-3.92-.72-5.77,0-.38.16-.75.35-1.1.58l1.28-6.42h9.1v-2.49h-11.13l-.08.44c-.4,1.99-.76,3.79-1.11,5.42l-.42,2.1c-.14.7-.27,1.34-.37,1.92-.11.58-.21,1.06-.3,1.52-.09.45-.15.72-.17.87l-.09.62h2.35l.17-.23c.5-.74,1.19-1.34,2-1.74.7-.35,1.47-.55,2.25-.6.78-.05,1.56.07,2.3.33.58.22,1.11.56,1.56.99.45.43.8.95,1.05,1.52.26.62.4,1.28.39,1.96.01.7-.12,1.39-.39,2.04-.26.59-.63,1.13-1.09,1.59-.47.45-1.02.8-1.62,1.03-.65.25-1.34.37-2.04.36-1.07,0-2.12-.29-3.03-.86-.9-.55-1.64-1.34-2.13-2.27l-.26-.51-2.01,1.17.22.45c.64,1.34,1.64,2.47,2.9,3.25,1.3.82,2.82,1.25,4.36,1.24,1.01,0,2.02-.17,2.96-.53.92-.34,1.76-.85,2.48-1.52.71-.67,1.28-1.48,1.69-2.36.41-.95.62-1.97.63-3,0-1.03-.19-2.06-.58-3.01v-.05Z" fill="#fff"></path></g></svg>