<svg xmlns="http://www.w3.org/2000/svg" id="Layer_1" width="60.05" height="37.59" viewBox="0 0 60.05 37.59"><path d="M12.46,9.89c0,.32-.13.63-.36.85-.23.24-.56.36-.89.35-.32,0-.62-.14-.85-.36-.89-.89-2.35-1.25-3.31-1.24-1.45,0-2.59.5-3.41,1.49-.82.99-1.23,2.41-1.23,4.23v13.12c.03.35-.12.68-.38.91-.23.19-.52.3-.83.31-.3,0-.59-.11-.83-.31-.27-.22-.41-.56-.38-.91v-13.12c0-1.07.14-2.14.44-3.16.27-.94.73-1.81,1.33-2.58.59-.75,1.34-1.35,2.2-1.77.96-.45,2.02-.67,3.08-.64.91.02,1.81.19,2.66.52.88.31,1.67.8,2.34,1.45.25.22.39.53.41.86h0Z" fill="#fff"></path><path d="M18.51,28.33c.03.35-.12.68-.38.91-.48.4-1.18.4-1.65,0-.27-.22-.41-.56-.38-.91V8.68c-.03-.35.12-.68.38-.91.48-.4,1.18-.4,1.65,0,.26.22.41.56.38.91v19.65Z" fill="#fff"></path><path d="M39.48,28.33c.02.35-.12.69-.39.91-.48.4-1.17.4-1.65,0-.27-.22-.41-.56-.38-.91v-13.4c0-.73-.14-1.45-.43-2.12-.55-1.31-1.6-2.35-2.9-2.9-1.35-.56-2.88-.56-4.23,0-1.31.55-2.35,1.6-2.9,2.9-.28.67-.43,1.39-.42,2.12v13.4c.03.35-.12.68-.38.91-.48.4-1.18.4-1.65,0-.27-.22-.41-.56-.38-.91v-13.4c0-1.05.2-2.1.62-3.07.39-.93.96-1.78,1.67-2.5.71-.71,1.55-1.27,2.47-1.67,1.97-.84,4.19-.84,6.16,0,1.89.78,3.39,2.28,4.17,4.17.41.97.62,2.01.62,3.07l.02,13.4Z" fill="#fff"></path><path d="M60.05,29.74c.01,1.06-.2,2.11-.62,3.08-.8,1.88-2.3,3.37-4.18,4.15-.97.41-2.01.62-3.07.62-.6,0-1.19-.06-1.77-.18-.63-.12-1.25-.31-1.85-.55-.6-.24-1.17-.55-1.69-.92-.5-.35-.93-.79-1.27-1.29-.14-.2-.21-.44-.2-.69,0-.33.13-.65.38-.87.23-.22.54-.34.87-.35.17,0,.34.04.5.1.2.09.36.23.47.42.48.72,1.51,1.29,2.2,1.51.76.25,1.56.38,2.36.39.73,0,1.45-.14,2.12-.43,1.31-.55,2.35-1.6,2.9-2.9.29-.66.44-1.38.44-2.1v-2.77c-.71.68-1.55,1.22-2.47,1.59-.95.39-1.96.59-2.98.59-1.06.01-2.11-.2-3.08-.62-1.87-.79-3.36-2.28-4.15-4.15-.42-.97-.63-2.02-.62-3.08v-6.36c0-1.05.2-2.1.62-3.07.39-.93.96-1.78,1.67-2.5.71-.71,1.55-1.27,2.47-1.67,1.97-.84,4.19-.84,6.16,0,1.89.78,3.39,2.28,4.17,4.17.41.97.62,2.01.62,3.07v14.81h.01ZM57.63,14.93c0-.73-.14-1.45-.43-2.12-.55-1.31-1.6-2.35-2.9-2.9-1.35-.56-2.88-.56-4.23,0-1.31.55-2.36,1.59-2.92,2.9-.28.67-.43,1.39-.42,2.12v6.33c0,.73.14,1.46.42,2.13.28.65.67,1.24,1.17,1.73.5.5,1.09.89,1.73,1.17,1.35.56,2.88.56,4.23,0,1.31-.55,2.35-1.6,2.9-2.9.29-.67.44-1.4.43-2.13v-6.33Z" fill="#fff"></path><circle cx="17.3" cy="2.07" r="2.07" fill="#fff"></circle></svg>