<svg xmlns="http://www.w3.org/2000/svg" id="a" width="250" height="100" viewBox="0 0 250 100"><path d="M187.59,40.78c-3-.23-5.99.51-8.53,2.13-2.97,2.02-4.1,4.86-3.72,8.37.24,2.85,2.18,5.27,4.9,6.12,2.2.83,4.54,1.3,6.81,1.94,1.47.32,2.92.76,4.33,1.29,1.84.82,2,2.93.35,4.12-.74.54-1.6.9-2.51,1.01-1.31.16-2.63.09-3.91-.21-1.88-.57-3.73-1.26-5.52-2.07-1.79-.75-3.4-.38-4.32,1.13-.88,1.44-.57,2.99,1.04,4.12,1.03.7,2.15,1.26,3.32,1.68,3.25,1.14,6.71,1.52,10.12,1.13,2.51-.21,4.91-1.1,6.95-2.57,4.49-3.32,4.58-11.54-1.21-14.22-1.87-.79-3.81-1.44-5.78-1.94-1.83-.53-3.71-.86-5.54-1.4-.96-.15-1.68-.93-1.76-1.9-.03-1.03.58-1.96,1.54-2.34,1.32-.78,2.89-1.03,4.4-.71,2.02.54,3.99,1.25,5.98,1.9,1.35.47,2.84-.06,3.59-1.26.72-1.11.46-2.58-.59-3.38-.74-.65-1.58-1.18-2.48-1.57-2.38-.99-4.92-1.46-7.48-1.39ZM88.68,56.95v7.32c0,.13,0,.26,0,.4.15,3.49,1.99,5.82,5.36,6.67,2.12.53,4.33.51,6.44-.05,1.98-.52,2.78-1.59,2.64-3.35-.14-1.82-1.2-2.74-3.32-2.9-2.49-.2-3.4-1.14-3.42-3.61-.02-3.49-.02-6.98,0-10.48.01-3.29-.36-3.01,2.9-3.04,2.05-.02,3.33-1.19,3.42-3.02.04-1.79-1.3-3.32-3.08-3.5-.59-.07-1.18-.08-1.78-.02-1.1.1-1.51-.31-1.49-1.44.07-1.44-.03-2.88-.3-4.3-.47-2.02-2.1-2.9-4.23-2.6-1.76.23-3.1,1.72-3.12,3.51-.04.92,0,1.85-.01,2.76q-.01,1.9-1.85,2.07c-1.86.17-3.04,1.07-3.32,2.54-.46,2.35.81,3.89,3.31,4.01,1.84.1,1.85.1,1.87,1.92,0,2.37,0,4.74,0,7.11ZM27.63,56.27c.29-1.47.59-2.94.87-4.41.55-2.93,1.33-5.78,3.14-8.23.57-.76.66-1.38-.13-2.02-.24-.22-.46-.47-.65-.74-1.98-2.51-2.02-4.82-.14-7.41,1.24-1.65,2.84-2.97,4.68-3.87,10.99-5.68,22.17-6.1,33.41-.83,2.11,1.07,4.04,2.47,5.73,4.13,1.9,1.79,2.95,4.31,2.89,6.92.11,1.47-.5,2.9-1.64,3.84-.35.27-.87.5-.26,1.03,1.92,1.69,2.18,4.05,2.23,6.33.13,5.46.08,10.94.04,16.4-.05,1.18-.21,2.36-.47,3.51-.22,1.64-1.55,2.91-3.2,3.05-2.08.3-4.18.4-6.29.31-4.07-.31-8.1-1.05-12.17-1.29-2.76-.09-5.52.06-8.26.43-3.6.39-7.15,1.11-10.75,1.46-4.88.46-6.7-.9-7.86-5.7-.38-1.59-.46-3.25-.7-4.87-.12-.83-.3-1.66-.46-2.49v-5.55h0ZM33.07,58.56c0,.4,0,.79,0,1.18-.03,2.25.51,4.46,1.59,6.44.99,2.04,3.26,3.1,5.46,2.54,1.04-.18,2.07-.4,3.08-.65,4.82-1.21,9.66-1.91,14.65-1.1,2.85.47,5.73.88,8.61,1.07,4.73.32,6.14-1.54,6.59-4.74.69-4.49.71-9.07.06-13.57-.34-2.21-.87-4.41-2.74-5.97-.12-.22-.13-.49,0-.72,1.69-1.74,1.13-3.5.02-5.21-1.21-1.82-2.9-3.28-4.88-4.2-3.49-1.71-7.29-2.69-11.18-2.9-4.81-.36-9.62.49-14.02,2.46-1.78.74-3.29,2.01-4.34,3.62-.82,1.32-1.22,2.97-.13,4.05,1.55,1.54,1.16,2.68.05,4.09-.35.56-.62,1.16-.81,1.79-1.48,3.79-1.76,7.79-2.01,11.8ZM222.37,69.33c-1.21,1.61-3.16,2.48-5.17,2.28-1.37.01-2.75-.1-4.1-.33-3.38-.79-5.24-3.21-5.27-6.69-.04-4.88,0-9.76-.01-14.64,0-1.94-.02-1.94-1.96-2.04-2.05-.1-3.16-1.07-3.31-2.9-.24-1.76,1-3.37,2.76-3.61.04,0,.07,0,.11-.01.75-.14,1.87-.03,2.16-.46.4-.62.2-1.64.23-2.49.02-.66-.02-1.32.01-1.98.01-1.94,1.6-3.5,3.54-3.48,2.22-.09,3.7,1.13,3.89,3.29.09.99.03,1.98.04,2.96.03,2.09.03,2.06,2.05,2.12.79,0,1.57.1,2.32.33,1.65.57,2.54,2.37,1.98,4.03-.06.18-.13.34-.22.5-.42,1-1.39,1.66-2.48,1.68-.73.01-1.45.05-2.18.01-1-.05-1.46.4-1.46,1.39.02,4.09-.07,8.18.1,12.26.1,2.52,1.06,3.37,3.62,3.43,1.75.04,2.54,1.13,3.33,2.36v1.98ZM136.93,52.7c-1.12-6.15-6.48-12.14-15.27-12.18-1.94.26-3.87.63-5.76,1.14-8.12,2.71-11.48,11.43-9.12,19.54,1.73,5.96,7.23,10.68,15.42,10.48,10.12-.24,16.62-8.59,14.73-18.97ZM123.37,64.74c-3.16.87-6.51-.54-8.09-3.41-2.07-3.35-1.93-7.6.34-10.82,2.81-4.22,9.22-4.15,12.1.04,1.13,1.71,1.73,3.71,1.72,5.76-.05,4.24-2.46,7.58-6.07,8.43Z" fill="#fff"></path><path d="M187.59,40.78c2.56-.07,5.1.4,7.46,1.38.9.39,1.74.92,2.48,1.57,1.05.79,1.31,2.27.59,3.38-.75,1.21-2.24,1.74-3.59,1.26-1.98-.65-3.96-1.36-5.98-1.9-1.5-.32-3.07-.07-4.4.71-.96.37-1.57,1.31-1.54,2.34.08.96.82,1.74,1.76,1.9,1.82.54,3.71.87,5.54,1.4,1.97.5,3.9,1.15,5.78,1.94,5.8,2.69,5.71,10.91,1.21,14.22-2.04,1.48-4.44,2.37-6.96,2.57-3.42.39-6.88,0-10.12-1.13-1.18-.41-2.29-.98-3.32-1.68-1.61-1.13-1.91-2.68-1.04-4.12.91-1.51,2.54-1.88,4.32-1.12,1.79.81,3.64,1.5,5.52,2.07,1.28.3,2.6.38,3.91.21.91-.12,1.78-.46,2.51-1.01,1.65-1.2,1.49-3.3-.35-4.12-1.41-.54-2.85-.97-4.33-1.29-2.27-.64-4.61-1.12-6.81-1.94-2.73-.85-4.67-3.28-4.9-6.12-.38-3.51.75-6.35,3.72-8.37,2.56-1.61,5.55-2.36,8.55-2.12ZM88.68,56.95c0-2.37,0-4.74,0-7.12-.01-1.82-.03-1.82-1.87-1.92-2.49-.12-3.76-1.67-3.31-4.01.29-1.48,1.46-2.37,3.32-2.54q1.84-.17,1.85-2.07c0-.92-.03-1.85.01-2.76.03-1.78,1.36-3.27,3.13-3.5,2.13-.3,3.76.58,4.23,2.6.27,1.42.37,2.86.3,4.3-.01,1.13.4,1.54,1.49,1.44.59-.06,1.18-.05,1.78.02,1.79.18,3.12,1.71,3.09,3.5-.09,1.83-1.37,3-3.42,3.02-3.26.03-2.89-.25-2.9,3.04-.01,3.49-.01,6.98,0,10.48.01,2.47.93,3.41,3.42,3.61,2.12.17,3.18,1.09,3.32,2.9.14,1.76-.66,2.82-2.64,3.35-2.11.57-4.32.58-6.44.05-3.38-.85-5.21-3.18-5.36-6.67,0-.13,0-.26,0-.4v-7.32ZM168.82,59.32c0-2.63.04-5.27,0-7.9-.08-5.33-2.82-8.9-7.97-10.11-4.65-1.12-9.53-.67-13.9,1.28-1.01.48-1.91,1.15-2.66,1.97-.99,1.19-.82,2.96.37,3.95.82.68,1.95.83,2.92.4.54-.22,1.03-.59,1.57-.84,2.73-1.4,5.92-1.61,8.81-.58,1.62.49,2.83,1.86,3.1,3.53.13,1.31.15,2.63.06,3.95-.01.76-.4.71-.88.31-.14-.14-.29-.26-.45-.38-3.79-2.68-8.68-3.23-12.96-1.46-2.33.87-4.13,2.76-4.88,5.12-1.86,5.03.71,10.62,5.74,12.48,1.04.38,2.14.59,3.25.6,3.41.14,6.54-.57,9.18-2.84.67-.57,1-.45,1.25.31.32,1.04,1.16,1.82,2.21,2.07,2.92.77,5.16-.9,5.22-3.93.05-2.65.01-5.29.01-7.93ZM161.14,61.78c0,2.56-.46,3.24-2.6,4.12-2,.9-4.27,1.01-6.35.29-1.82-.56-3.09-2.21-3.13-4.12.07-1.9,1.34-3.54,3.15-4.11,2.13-.75,4.48-.62,6.52.36,1.6.68,2.93,1.65,2.4,3.46Z" fill="#fff"></path></svg>