<svg xmlns="http://www.w3.org/2000/svg" id="a" width="250" height="100" viewBox="0 0 250 100"><path d="M130.07,35.54h19.92v4.87h-14.54v6.92h14.13v4.71h-14.13v7.04h14.54v4.87h-19.92v-28.41ZM204.99,64.46c6.11,0,9.55-2.92,9.55-6.94,0-2.86-2.04-5-6.3-5.92l-4.51-.92c-2.62-.49-3.44-.97-3.44-1.95,0-1.26,1.26-2.04,3.59-2.04,2.52,0,4.39.68,4.87,3.01h5.28c-.29-4.39-3.44-7.28-9.83-7.28-5.53,0-9.41,2.28-9.41,6.7,0,3.06,2.13,5.04,6.74,6.01l5.04,1.16c1.99.39,2.52.93,2.52,1.75,0,1.31-1.5,2.13-3.93,2.13-3.05,0-4.8-.68-5.47-3.01h-5.31c.77,4.38,4.02,7.29,10.61,7.29h0ZM192.84,63.93h-5.72c-3.59,0-5.58-2.23-5.58-5.05v-11.16h-4.02v-4.76h4.04v-5.97h5.31v5.97h5.96v4.76h-5.96v9.8c0,1.12.77,1.65,1.99,1.65h3.97v4.76ZM169.94,42.97v1.89c-1.87-1.58-4.24-2.44-6.69-2.44-6.08-.13-11.12,4.7-11.25,10.78-.13,6.08,4.7,11.12,10.78,11.25.15,0,.31,0,.46,0,2.45.01,4.82-.85,6.69-2.44v1.9h5.3v-20.96h-5.3ZM163.69,59.86c-3.54.04-6.44-2.8-6.48-6.34-.04-3.54,2.8-6.44,6.34-6.48,3.54-.04,6.44,2.8,6.48,6.34,0,.03,0,.05,0,.08.03,3.5-2.78,6.36-6.28,6.39-.02,0-.05,0-.07,0h0Z" fill="#fff"></path><path d="M118.25,46.9c-2.67,0-4.56,2.09-4.56,5.29v11.75h-4.07v-20.67h4.02v2.52c1.01-1.7,2.86-2.73,4.84-2.67h1.46v3.79h-1.7ZM106.81,53.59c0-6.17-4.39-10.78-10.32-10.78-5.88.04-10.61,4.84-10.57,10.71,0,.02,0,.04,0,.06,0,6.16,4.75,10.82,10.95,10.82,3.51.07,6.84-1.58,8.92-4.42l-2.95-2.16c-1.38,1.92-3.6,3.04-5.97,3.01-3.42-.02-6.32-2.53-6.82-5.92h16.77v-1.33ZM90.13,51.7c.73-3.15,3.25-5.29,6.3-5.29s5.57,2.13,6.25,5.29h-12.55ZM73.03,42.82c-2.75,0-5.38,1.1-7.31,3.06v-10.34h-4.07v28.39h4.02v-2.62c1.95,1.97,4.6,3.09,7.37,3.1,5.96.13,10.9-4.6,11.03-10.57.13-5.96-4.6-10.9-10.57-11.03-.15,0-.31,0-.46,0h0ZM72.74,60.78c-3.95.02-7.17-3.17-7.19-7.13-.02-3.95,3.17-7.17,7.13-7.19,3.95-.02,7.17,3.17,7.19,7.13,0,.02,0,.04,0,.06,0,3.92-3.17,7.11-7.1,7.12,0,0-.02,0-.03,0v.02ZM46.66,60.58c3.93,0,6.98-3.01,6.98-7.52v-17.52h4.22v28.39h-4.17v-2.69c-1.97,2.03-4.68,3.17-7.51,3.15-6.06,0-10.72-4.42-10.72-11.11v-17.75h4.29v17.54c0,4.54,2.92,7.5,6.91,7.5Z" fill="#fff"></path></svg>