<svg xmlns="http://www.w3.org/2000/svg" id="a" width="250" height="100" viewBox="0 0 250 100"><path d="M146.2,70.04c-1.75-.69-2.49-.98-2.49-1.71,0-.65.62-1.09,1.75-1.09,1.37,0,2.4.41,2.99.7l.78-3.15c-.9-.41-2.09-.74-3.73-.74-2.85,0-4.75,1.33-5.35,3.22-.39-.65-.91-1.22-1.52-1.66-1.36-1-3.04-1.45-5.68-1.45-1.64,0-3.22.11-4.41.32v4.3c-.81-2.71-2.93-4.75-6.33-4.75-3.15,0-5.4,1.86-6.36,4.56-.85-2.61-2.95-4.56-6.27-4.56-3.74,0-6.22,2.62-6.76,6.15h-4.66v-2.69h5.17v-3.22h-8.88v14.64h3.71v-5.56h4.69c.56,3.28,2.82,5.8,6.5,5.8h.02c3.18,0,5.47-1.68,6.43-4.51.88,2.63,3,4.51,6.18,4.51h.02c3.32,0,5.66-1.83,6.54-4.88v4.56c.72.13,1.91.26,3.69.26,2.71,0,4.99-.54,6.5-1.81,1.31-1.08,2.35-2.96,2.4-5.85.68.67,1.61,1.19,2.71,1.61,1.56.56,2.17.95,2.17,1.67s-.61,1.2-1.89,1.2c-.75,0-1.49-.14-2.14-.33-.5,1.1-1.19,1.98-1.98,2.63-.03.02-.05.04-.08.06.81.42,2.37.85,3.98.85,4.04,0,5.89-2.15,5.89-4.67,0-2.04-1.11-3.43-3.59-4.41M109.53,76.04h-.04c-1.78,0-2.89-1.82-2.87-4.45,0-2.54,1.09-4.45,2.87-4.45s2.88,1.91,2.88,4.43c0,2.65-1.05,4.47-2.83,4.47M122.16,76.04h-.04c-1.79,0-2.89-1.82-2.87-4.45,0-2.54,1.09-4.45,2.87-4.45s2.87,1.91,2.87,4.43c0,2.65-1.05,4.47-2.83,4.47M133.02,76.04c-.25,0-.6,0-.78-.05v-8.75c.18-.04.55-.09,1.13-.09,2.22,0,3.84,1.35,3.84,4.21,0,3.3-1.78,4.72-4.19,4.67" fill="#fff"></path><path d="M152.24,61.73c-2.57,0-3.98-1.96-3.98-4.29s1.57-4.39,4.12-4.39c2.67,0,4.02,2,4.02,4.25,0,2.7-1.6,4.43-4.14,4.43M139.23,37.17c-4.64-1.89-6.08-2.71-6.08-4.71,0-1.77,1.64-2.95,4.64-2.95,3.71,0,6.43,1.18,8.02,1.89l2.07-8.48c-2.45-1.18-5.56-2.06-9.98-2.06-6.11,0-10.58,2.35-12.92,5.96v-5.32h-9.87v22.56c0,6.3-1.91,9.36-5.84,9.36s-5.83-3.41-5.83-9.42v-22.5h-9.82v21.67c0,12.72,5.29,18.67,15.38,18.67s15.98-6.18,15.98-18.43v-3.75c1.66,2.45,4.39,4.27,7.99,5.63,4.15,1.53,5.78,2.65,5.78,4.54,0,2-1.59,3.24-4.97,3.24-1.76,0-3.87-.34-5.87-.92-.45,1.65-1.04,3.2-1.8,4.64-.68,1.28-1.51,2.47-2.49,3.55,3.23,1.03,6.88,1.52,9.59,1.52,10.74,0,15.62-5.9,15.62-12.73,0-5.54-3-9.3-9.6-11.95" fill="#fff"></path><path d="M150.84,64.73c.62,0,1.11.49,1.11,1.08s-.49,1.09-1.12,1.09-1.13-.49-1.13-1.09.51-1.08,1.13-1.08h0ZM150.82,65.02c-.43,0-.76.35-.76.8s.33.79.76.79c.44,0,.77-.35.77-.8s-.33-.79-.77-.79h0ZM150.71,66.3h-.34v-.96c.06,0,.24-.04.46-.04.24,0,.34.03.41.08.06.04.11.12.11.21s-.09.19-.23.22h0c.12.05.18.13.21.26.03.14.06.2.07.23h-.38s-.05-.12-.07-.19c-.01-.09-.06-.14-.15-.14h-.09v.33ZM150.72,65.75h.07c.11,0,.16-.05.16-.11,0-.07-.06-.11-.15-.11-.03,0-.06,0-.09,0" fill="#fff"></path></svg>