<svg xmlns="http://www.w3.org/2000/svg" xmlns:xlink="http://www.w3.org/1999/xlink" id="Layer_1" width="195" height="19.32" viewBox="0 0 195 19.32"><defs><clipPath id="clippath"><rect width="195" height="19" fill="none"></rect></clipPath></defs><g clip-path="url(#clippath)"><path d="M25.75,2.91l-2.03,10.48-2.33-10.48h-3.97l-2.33,10.48-2.03-10.48h-4.1l3.32,16.02h4.74l2.33-10.65,2.33,10.65h4.66l3.32-16.02h-3.92Z" fill="#fff"></path><path d="M34.67,5.85c-2.54,0-4.31.88-4.96,1.5v3.43c.73-.7,2.33-1.67,4.44-1.67,1.29,0,1.77.35,1.77,1.1s-.69.88-2.54,1.32c-2.85.62-4.44,1.63-4.44,4.14s1.47,3.65,3.62,3.65c1.81,0,2.89-.84,3.49-2.02v1.63h3.88v-7.88c0-3.61-1.85-5.19-5.26-5.19ZM34.11,16.73c-.91,0-1.42-.57-1.42-1.36s.78-1.45,1.81-1.8c.52-.22,1.03-.4,1.42-.75v1.76c0,1.36-.69,2.11-1.77,2.11" fill="#fff"></path><path d="M45.45,2.91h-4.05v16.02h4.05V2.91Z" fill="#fff"></path><path d="M61.66,5.9c-1.94,0-3.23,1.19-3.88,2.82-.34-1.72-1.55-2.82-3.19-2.82-1.85,0-3.1,1.1-3.71,2.68v-2.33h-3.97v12.68h4.05v-7.04c0-1.72.56-2.73,1.77-2.73.99,0,1.34.7,1.34,1.76v8.01h4.05v-7.04c0-1.72.56-2.73,1.77-2.73s1.34.7,1.34,1.76v8.01h4.05v-8.58c0-2.68-1.25-4.45-3.58-4.45" fill="#fff"></path><path d="M71.84,5.85c-2.54,0-4.31.88-4.96,1.5v3.43c.73-.7,2.33-1.67,4.44-1.67,1.29,0,1.77.35,1.77,1.1,0,.66-.69.88-2.54,1.32-2.85.62-4.44,1.63-4.44,4.14s1.47,3.65,3.62,3.65,2.89-.84,3.49-2.02v1.63h3.88v-7.88c0-3.61-1.85-5.19-5.26-5.19ZM71.28,16.73c-.91,0-1.42-.57-1.42-1.36,0-1.01.78-1.45,1.81-1.8.52-.22,1.03-.4,1.42-.75v1.76c0,1.36-.69,2.11-1.77,2.11" fill="#fff"></path><path d="M82.44,9.82v-3.57h-3.97v12.68h4.05v-5.37c0-2.46,1.51-3.13,2.93-3.13s.95.04,1.16.13v-4.36c-2.28-.13-3.66,1.36-4.18,3.65" fill="#fff"></path><path d="M94.34,9.46v-3.21h-2.59v-2.46h-4.05v10.92c0,3.04,1.68,4.49,4.4,4.49,1.25,0,1.94-.26,2.2-.44v-3.17c-.22.18-.6.31-1.08.31-.91,0-1.47-.4-1.47-1.72v-4.67h2.59v-.04Z" fill="#fff"></path><path d="M99.38,2.91h6.29c3.45,0,5.43,1.23,5.43,4.36,0,2.02-1.42,2.99-3.36,3.43,2.28.35,3.88,1.32,3.88,3.7s-2.2,4.58-6.08,4.58h-6.16V2.91ZM103.44,6.07v3.13h1.81c1.34,0,1.85-.62,1.85-1.54s-.56-1.58-1.85-1.58h-1.81ZM103.44,12.28v3.52h1.9c1.55,0,2.2-.7,2.2-1.72s-.65-1.76-2.2-1.76h-1.9v-.04Z" fill="#fff"></path><path d="M120.51,16.2c-.65,1.8-2.03,3.13-4.18,3.13-2.41,0-3.79-1.8-3.79-4.62V6.29h3.97v7.79c0,1.32.47,2.07,1.64,2.07s2.33-1.28,2.33-3.39v-6.43h3.92v12.68h-3.88v-2.82Z" fill="#fff"></path><path d="M132.62,11.31c1.68.53,2.85,1.58,2.85,3.83,0,2.68-2.16,4.14-5.26,4.14-2.41,0-3.79-.53-4.7-1.1v-3.39c.65.7,2.24,1.54,4.22,1.54,1.21,0,1.9-.18,1.9-.92,0-1.23-1.72-1.06-3.45-1.63-1.68-.57-2.8-1.5-2.8-3.74,0-2.64,2.03-4.09,5.09-4.09s3.58.44,4.27.92v3.3c-.56-.53-2.11-1.28-3.92-1.28s-1.81.18-1.81.97,1.85.92,3.62,1.5" fill="#fff"></path><path d="M136.16,3.7c0-1.19.78-1.72,2.2-1.72s2.2.57,2.2,1.72-.82,1.76-2.2,1.76-2.2-.57-2.2-1.76ZM140.34,18.93h-3.97V6.25h3.97v12.68Z" fill="#fff"></path><path d="M145.86,18.93h-3.97V6.25h3.92v2.68c.65-1.76,2.03-3.04,4.14-3.04,2.5,0,3.88,1.8,3.88,4.62v8.41h-3.97v-7.75c0-1.32-.47-2.07-1.72-2.07-1.38,0-2.28,1.23-2.28,3.39v6.43Z" fill="#fff"></path><path d="M161.81,19.32c-4.48,0-7.11-2.55-7.11-6.73s2.72-6.73,6.16-6.73,5.99,2.24,5.65,7.7h-7.89c.3,1.8,1.42,2.6,3.58,2.6,1.51,0,2.97-.48,3.71-1.1v3.21c-.52.44-2.11,1.01-4.14,1.01M158.62,11.27h4.27c-.04-1.76-.78-2.46-1.94-2.46-1.25,0-2.03.75-2.28,2.46" fill="#fff"></path><path d="M174.14,11.31c1.68.53,2.84,1.58,2.84,3.83,0,2.68-2.15,4.14-5.26,4.14-2.41,0-3.79-.53-4.7-1.1v-3.39c.65.7,2.24,1.54,4.22,1.54s1.9-.18,1.9-.92c0-1.23-1.72-1.06-3.45-1.63-1.68-.57-2.8-1.5-2.8-3.74,0-2.64,2.03-4.09,5.09-4.09s3.58.44,4.27.92v3.3c-.56-.53-2.11-1.28-3.92-1.28-1.12,0-1.81.18-1.81.97s1.85.92,3.62,1.5" fill="#fff"></path><path d="M184.57,11.31c1.68.53,2.84,1.58,2.84,3.83,0,2.68-2.16,4.14-5.26,4.14-2.41,0-3.79-.53-4.7-1.1v-3.39c.65.7,2.24,1.54,4.22,1.54,1.21,0,1.9-.18,1.9-.92,0-1.23-1.72-1.06-3.45-1.63-1.68-.57-2.8-1.5-2.8-3.74,0-2.64,2.03-4.09,5.09-4.09s3.58.44,4.27.92v3.3c-.56-.53-2.11-1.28-3.92-1.28-1.12,0-1.81.18-1.81.97s1.85.92,3.62,1.5" fill="#fff"></path></g></svg>